<svg width="1777" height="488" viewBox="0 0 1777 488" fill="none" xmlns="http://www.w3.org/2000/svg">
<path fill-rule="evenodd" clip-rule="evenodd" d="M215.833 431.701C335.07 431.701 431.701 335.07 431.701 215.833C431.701 96.6307 335.07 0 215.833 0C96.6306 0 0 96.6307 0 215.833C0 335.07 96.6306 431.701 215.833 431.701ZM383.381 217.973C383.381 213.222 383.218 208.48 382.919 203.73C382.585 198.979 382.114 194.237 381.481 189.486H190.693L221.055 251.176H311.231C308.389 262.578 304.041 272.944 298.186 282.274C292.34 291.604 285.449 299.761 277.557 306.712C269.631 313.671 260.609 319.055 250.509 322.83C240.348 326.639 229.614 328.547 218.213 328.547C203.969 328.547 190.693 325.637 178.35 319.757C166.016 313.902 155.248 306.01 146.089 296.046C136.896 286.083 129.603 274.347 124.253 260.909C118.869 247.461 116.164 233.158 116.164 217.973C116.164 202.762 118.869 188.451 124.253 175.012C129.603 161.565 136.896 149.863 146.089 139.866C155.248 129.902 166.016 122.01 178.35 116.164C190.693 110.309 203.969 107.364 218.213 107.364C237.498 107.364 254.985 112.517 270.675 122.781C286.322 133.078 298.426 146.756 306.986 163.841L362.521 128.267C347.31 104.223 327.144 84.8267 302.004 70.1211C276.821 55.407 248.908 48.0542 218.213 48.0542C194.802 48.0542 172.735 52.4624 152.003 61.3217C131.272 70.1896 113.254 82.293 97.906 97.6406C82.5585 112.988 70.455 131.006 61.5957 151.738C52.7364 172.47 48.2854 194.537 48.2854 217.973C48.2854 241.384 52.7364 263.451 61.5957 284.182C70.455 304.906 82.5585 322.932 97.906 338.28C113.254 353.627 131.272 365.731 152.003 374.59C172.735 383.449 194.802 387.866 218.213 387.866C241.615 387.866 263.451 383.449 283.712 374.59C303.973 365.731 321.46 353.627 336.174 338.28C350.888 322.932 362.418 304.906 370.815 284.182C379.204 263.451 383.381 241.384 383.381 217.973Z" fill="#373737"/>
<path d="M474.718 434.77C474.521 432.783 473.675 431.239 472.181 430.139C470.686 429.038 468.658 428.488 466.096 428.488C464.355 428.488 462.886 428.735 461.687 429.227C460.488 429.703 459.568 430.369 458.928 431.223C458.304 432.077 457.992 433.045 457.992 434.129C457.959 435.033 458.148 435.821 458.558 436.494C458.985 437.168 459.568 437.751 460.307 438.243C461.046 438.719 461.9 439.138 462.869 439.5C463.838 439.844 464.873 440.14 465.973 440.386L470.506 441.47C472.706 441.963 474.726 442.62 476.566 443.441C478.405 444.262 479.998 445.272 481.345 446.471C482.691 447.67 483.734 449.082 484.473 450.708C485.228 452.334 485.614 454.198 485.631 456.3C485.614 459.387 484.826 462.064 483.266 464.33C481.722 466.58 479.489 468.329 476.566 469.577C473.659 470.809 470.153 471.425 466.047 471.425C461.974 471.425 458.427 470.801 455.405 469.553C452.4 468.305 450.051 466.457 448.36 464.01C446.685 461.547 445.806 458.5 445.724 454.871H456.046C456.161 456.562 456.645 457.975 457.499 459.108C458.369 460.225 459.527 461.07 460.972 461.645C462.434 462.204 464.085 462.483 465.924 462.483C467.73 462.483 469.299 462.22 470.629 461.695C471.976 461.169 473.018 460.438 473.757 459.502C474.496 458.566 474.866 457.49 474.866 456.275C474.866 455.142 474.529 454.189 473.856 453.418C473.199 452.646 472.23 451.989 470.949 451.447C469.685 450.905 468.133 450.412 466.293 449.969L460.8 448.589C456.547 447.555 453.188 445.937 450.725 443.737C448.261 441.536 447.038 438.572 447.054 434.844C447.038 431.789 447.851 429.12 449.493 426.838C451.152 424.555 453.426 422.773 456.317 421.492C459.207 420.211 462.492 419.571 466.17 419.571C469.914 419.571 473.183 420.211 475.974 421.492C478.783 422.773 480.967 424.555 482.527 426.838C484.087 429.12 484.892 431.765 484.941 434.77H474.718ZM492.805 470.71V420.261H526.8V429.055H503.472V441.076H525.051V449.87H503.472V461.916H526.898V470.71H492.805ZM535.28 470.71V420.261H555.184C558.994 420.261 562.246 420.942 564.939 422.305C567.649 423.652 569.71 425.565 571.122 428.045C572.551 430.508 573.265 433.407 573.265 436.741C573.265 440.091 572.543 442.973 571.098 445.387C569.652 447.785 567.559 449.624 564.816 450.905C562.09 452.186 558.789 452.826 554.913 452.826H541.586V444.254H553.189C555.225 444.254 556.917 443.975 558.263 443.416C559.61 442.858 560.612 442.02 561.269 440.904C561.942 439.787 562.279 438.399 562.279 436.741C562.279 435.065 561.942 433.653 561.269 432.504C560.612 431.354 559.602 430.484 558.239 429.892C556.892 429.285 555.192 428.981 553.14 428.981H545.947V470.71H535.28ZM562.525 447.752L575.064 470.71H563.289L551.021 447.752H562.525ZM588.563 420.261L600.757 458.591H601.225L613.443 420.261H625.267L607.876 470.71H594.13L576.714 420.261H588.563ZM642.006 420.261V470.71H631.339V420.261H642.006ZM695.295 437.923H684.505C684.308 436.527 683.906 435.287 683.298 434.203C682.69 433.103 681.91 432.167 680.958 431.395C680.005 430.623 678.905 430.032 677.657 429.621C676.425 429.211 675.087 429.006 673.642 429.006C671.03 429.006 668.756 429.654 666.818 430.952C664.88 432.233 663.378 434.105 662.31 436.568C661.243 439.015 660.709 441.988 660.709 445.486C660.709 449.082 661.243 452.104 662.31 454.551C663.394 456.998 664.905 458.845 666.843 460.093C668.781 461.341 671.022 461.965 673.568 461.965C674.996 461.965 676.318 461.777 677.534 461.399C678.765 461.021 679.858 460.471 680.81 459.748C681.763 459.009 682.551 458.114 683.175 457.063C683.815 456.012 684.259 454.813 684.505 453.467L695.295 453.516C695.015 455.832 694.318 458.065 693.201 460.216C692.101 462.351 690.614 464.265 688.742 465.956C686.886 467.631 684.669 468.961 682.091 469.947C679.529 470.916 676.631 471.4 673.395 471.4C668.896 471.4 664.872 470.382 661.325 468.346C657.794 466.309 655.002 463.361 652.949 459.502C650.913 455.643 649.895 450.971 649.895 445.486C649.895 439.984 650.929 435.304 652.999 431.444C655.068 427.585 657.876 424.645 661.423 422.625C664.971 420.589 668.961 419.571 673.395 419.571C676.318 419.571 679.028 419.981 681.524 420.803C684.037 421.624 686.262 422.822 688.2 424.399C690.138 425.959 691.715 427.872 692.93 430.139C694.162 432.405 694.95 435 695.295 437.923ZM670.759 470.563H675.588L675.194 472.706C676.885 472.969 678.265 473.601 679.332 474.603C680.416 475.604 680.966 476.967 680.982 478.692C680.999 481.139 679.866 483.085 677.583 484.53C675.3 485.992 672.098 486.722 667.976 486.722L667.877 482.042C669.947 482.042 671.564 481.787 672.73 481.278C673.913 480.786 674.528 480.014 674.578 478.963C674.611 477.961 674.225 477.197 673.42 476.672C672.615 476.146 671.359 475.777 669.651 475.563L670.759 470.563ZM749.304 445.486C749.304 450.987 748.261 455.667 746.176 459.527C744.106 463.386 741.282 466.334 737.702 468.37C734.138 470.39 730.131 471.4 725.68 471.4C721.197 471.4 717.174 470.382 713.61 468.346C710.046 466.309 707.23 463.361 705.16 459.502C703.091 455.643 702.057 450.971 702.057 445.486C702.057 439.984 703.091 435.304 705.16 431.444C707.23 427.585 710.046 424.645 713.61 422.625C717.174 420.589 721.197 419.571 725.68 419.571C730.131 419.571 734.138 420.589 737.702 422.625C741.282 424.645 744.106 427.585 746.176 431.444C748.261 435.304 749.304 439.984 749.304 445.486ZM738.49 445.486C738.49 441.922 737.956 438.917 736.889 436.47C735.838 434.023 734.351 432.167 732.43 430.902C730.509 429.638 728.259 429.006 725.68 429.006C723.102 429.006 720.852 429.638 718.931 430.902C717.009 432.167 715.515 434.023 714.447 436.47C713.396 438.917 712.871 441.922 712.871 445.486C712.871 449.049 713.396 452.055 714.447 454.501C715.515 456.948 717.009 458.804 718.931 460.069C720.852 461.333 723.102 461.965 725.68 461.965C728.259 461.965 730.509 461.333 732.43 460.069C734.351 458.804 735.838 456.948 736.889 454.501C737.956 452.055 738.49 449.049 738.49 445.486ZM784.573 434.77C784.376 432.783 783.531 431.239 782.036 430.139C780.542 429.038 778.514 428.488 775.952 428.488C774.211 428.488 772.741 428.735 771.542 429.227C770.343 429.703 769.424 430.369 768.783 431.223C768.159 432.077 767.847 433.045 767.847 434.129C767.814 435.033 768.003 435.821 768.414 436.494C768.841 437.168 769.424 437.751 770.163 438.243C770.902 438.719 771.756 439.138 772.725 439.5C773.694 439.844 774.728 440.14 775.829 440.386L780.361 441.47C782.562 441.963 784.582 442.62 786.421 443.441C788.26 444.262 789.853 445.272 791.2 446.471C792.547 447.67 793.589 449.082 794.328 450.708C795.084 452.334 795.47 454.198 795.486 456.3C795.47 459.387 794.682 462.064 793.121 464.33C791.578 466.58 789.344 468.329 786.421 469.577C783.514 470.809 780.008 471.425 775.902 471.425C771.83 471.425 768.282 470.801 765.261 469.553C762.255 468.305 759.907 466.457 758.215 464.01C756.54 461.547 755.662 458.5 755.58 454.871H765.901C766.016 456.562 766.501 457.975 767.355 459.108C768.225 460.225 769.383 461.07 770.828 461.645C772.289 462.204 773.94 462.483 775.779 462.483C777.586 462.483 779.154 462.22 780.484 461.695C781.831 461.169 782.874 460.438 783.613 459.502C784.352 458.566 784.721 457.49 784.721 456.275C784.721 455.142 784.385 454.189 783.711 453.418C783.054 452.646 782.085 451.989 780.805 451.447C779.54 450.905 777.988 450.412 776.149 449.969L770.655 448.589C766.402 447.555 763.044 445.937 760.58 443.737C758.117 441.536 756.893 438.572 756.91 434.844C756.893 431.789 757.706 429.12 759.349 426.838C761.007 424.555 763.282 422.773 766.172 421.492C769.062 420.211 772.347 419.571 776.026 419.571C779.77 419.571 783.038 420.211 785.83 421.492C788.638 422.773 790.822 424.555 792.382 426.838C793.943 429.12 794.747 431.765 794.796 434.77H784.573ZM818.716 470.71V420.261H852.71V429.055H829.382V441.076H850.961V449.87H829.382V461.916H852.809V470.71H818.716ZM888.559 434.77C888.362 432.783 887.516 431.239 886.021 430.139C884.527 429.038 882.499 428.488 879.937 428.488C878.196 428.488 876.726 428.735 875.527 429.227C874.329 429.703 873.409 430.369 872.768 431.223C872.144 432.077 871.832 433.045 871.832 434.129C871.799 435.033 871.988 435.821 872.399 436.494C872.826 437.168 873.409 437.751 874.148 438.243C874.887 438.719 875.741 439.138 876.71 439.5C877.679 439.844 878.713 440.14 879.814 440.386L884.346 441.47C886.547 441.963 888.567 442.62 890.406 443.441C892.245 444.262 893.838 445.272 895.185 446.471C896.532 447.67 897.575 449.082 898.314 450.708C899.069 452.334 899.455 454.198 899.471 456.3C899.455 459.387 898.667 462.064 897.107 464.33C895.563 466.58 893.329 468.329 890.406 469.577C887.499 470.809 883.993 471.425 879.888 471.425C875.815 471.425 872.268 470.801 869.246 469.553C866.24 468.305 863.892 466.457 862.201 464.01C860.525 461.547 859.647 458.5 859.565 454.871H869.886C870.001 456.562 870.486 457.975 871.34 459.108C872.21 460.225 873.368 461.07 874.813 461.645C876.275 462.204 877.925 462.483 879.764 462.483C881.571 462.483 883.139 462.22 884.469 461.695C885.816 461.169 886.859 460.438 887.598 459.502C888.337 458.566 888.706 457.49 888.706 456.275C888.706 455.142 888.37 454.189 887.696 453.418C887.04 452.646 886.071 451.989 884.79 451.447C883.525 450.905 881.973 450.412 880.134 449.969L874.641 448.589C870.387 447.555 867.029 445.937 864.565 443.737C862.102 441.536 860.879 438.572 860.895 434.844C860.879 431.789 861.691 429.12 863.334 426.838C864.992 424.555 867.267 422.773 870.157 421.492C873.048 420.211 876.332 419.571 880.011 419.571C883.755 419.571 887.023 420.211 889.815 421.492C892.623 422.773 894.807 424.555 896.368 426.838C897.928 429.12 898.732 431.765 898.782 434.77H888.559ZM906.646 470.71V420.261H926.55C930.376 420.261 933.636 420.991 936.33 422.453C939.023 423.898 941.076 425.91 942.488 428.488C943.917 431.05 944.631 434.006 944.631 437.356C944.631 440.707 943.909 443.663 942.463 446.225C941.018 448.786 938.924 450.782 936.182 452.211C933.456 453.639 930.155 454.354 926.279 454.354H913.593V445.806H924.555C926.607 445.806 928.299 445.453 929.629 444.746C930.976 444.024 931.978 443.03 932.635 441.766C933.308 440.485 933.644 439.015 933.644 437.356C933.644 435.681 933.308 434.22 932.635 432.972C931.978 431.707 930.976 430.73 929.629 430.04C928.283 429.334 926.575 428.981 924.505 428.981H917.312V470.71H906.646ZM951.559 470.71V420.261H985.554V429.055H962.226V441.076H983.805V449.87H962.226V461.916H985.652V470.71H951.559ZM1038.55 437.923H1027.76C1027.56 436.527 1027.16 435.287 1026.55 434.203C1025.94 433.103 1025.16 432.167 1024.21 431.395C1023.26 430.623 1022.16 430.032 1020.91 429.621C1019.68 429.211 1018.34 429.006 1016.89 429.006C1014.28 429.006 1012.01 429.654 1010.07 430.952C1008.13 432.233 1006.63 434.105 1005.56 436.568C1004.5 439.015 1003.96 441.988 1003.96 445.486C1003.96 449.082 1004.5 452.104 1005.56 454.551C1006.65 456.998 1008.16 458.845 1010.1 460.093C1012.03 461.341 1014.27 461.965 1016.82 461.965C1018.25 461.965 1019.57 461.777 1020.79 461.399C1022.02 461.021 1023.11 460.471 1024.06 459.748C1025.02 459.009 1025.8 458.114 1026.43 457.063C1027.07 456.012 1027.51 454.813 1027.76 453.467L1038.55 453.516C1038.27 455.832 1037.57 458.065 1036.45 460.216C1035.35 462.351 1033.87 464.265 1031.99 465.956C1030.14 467.631 1027.92 468.961 1025.34 469.947C1022.78 470.916 1019.88 471.4 1016.65 471.4C1012.15 471.4 1008.12 470.382 1004.58 468.346C1001.05 466.309 998.255 463.361 996.202 459.502C994.165 455.643 993.147 450.971 993.147 445.486C993.147 439.984 994.182 435.304 996.251 431.444C998.32 427.585 1001.13 424.645 1004.68 422.625C1008.22 420.589 1012.21 419.571 1016.65 419.571C1019.57 419.571 1022.28 419.981 1024.78 420.803C1027.29 421.624 1029.51 422.822 1031.45 424.399C1033.39 425.959 1034.97 427.872 1036.18 430.139C1037.41 432.405 1038.2 435 1038.55 437.923ZM1056.86 420.261V470.71H1046.2V420.261H1056.86ZM1074.33 470.71H1062.9L1080.32 420.261H1094.07L1111.46 470.71H1100.03L1087.39 431.789H1087L1074.33 470.71ZM1073.62 450.88H1100.62V459.206H1073.62V450.88ZM1117.53 470.71V420.261H1128.2V461.916H1149.82V470.71H1117.53ZM1167.55 420.261V470.71H1156.89V420.261H1167.55ZM1175.79 470.71V464.38L1200.96 429.055H1175.74V420.261H1214.36V426.591L1189.16 461.916H1214.41V470.71H1175.79ZM1231.29 470.71H1219.86L1237.28 420.261H1251.03L1268.42 470.71H1256.99L1244.35 431.789H1243.96L1231.29 470.71ZM1230.58 450.88H1257.58V459.206H1230.58V450.88ZM1292.37 470.71H1274.49V420.261H1292.52C1297.6 420.261 1301.96 421.271 1305.63 423.291C1309.29 425.294 1312.1 428.176 1314.08 431.937C1316.06 435.698 1317.06 440.197 1317.06 445.436C1317.06 450.691 1316.06 455.208 1314.08 458.985C1312.1 462.762 1309.27 465.661 1305.58 467.68C1301.9 469.7 1297.5 470.71 1292.37 470.71ZM1285.16 461.571H1291.93C1295.08 461.571 1297.74 461.013 1299.89 459.896C1302.05 458.763 1303.68 457.014 1304.76 454.649C1305.86 452.268 1306.41 449.197 1306.41 445.436C1306.41 441.708 1305.86 438.662 1304.76 436.297C1303.68 433.932 1302.06 432.192 1299.91 431.075C1297.76 429.958 1295.11 429.4 1291.95 429.4H1285.16V461.571ZM1371.32 445.486C1371.32 450.987 1370.28 455.667 1368.19 459.527C1366.12 463.386 1363.3 466.334 1359.72 468.37C1356.15 470.39 1352.14 471.4 1347.69 471.4C1343.21 471.4 1339.19 470.382 1335.62 468.346C1332.06 466.309 1329.24 463.361 1327.17 459.502C1325.11 455.643 1324.07 450.971 1324.07 445.486C1324.07 439.984 1325.11 435.304 1327.17 431.444C1329.24 427.585 1332.06 424.645 1335.62 422.625C1339.19 420.589 1343.21 419.571 1347.69 419.571C1352.14 419.571 1356.15 420.589 1359.72 422.625C1363.3 424.645 1366.12 427.585 1368.19 431.444C1370.28 435.304 1371.32 439.984 1371.32 445.486ZM1360.5 445.486C1360.5 441.922 1359.97 438.917 1358.9 436.47C1357.85 434.023 1356.37 432.167 1354.44 430.902C1352.52 429.638 1350.27 429.006 1347.69 429.006C1345.12 429.006 1342.87 429.638 1340.94 430.902C1339.02 432.167 1337.53 434.023 1336.46 436.47C1335.41 438.917 1334.88 441.922 1334.88 445.486C1334.88 449.049 1335.41 452.055 1336.46 454.501C1337.53 456.948 1339.02 458.804 1340.94 460.069C1342.87 461.333 1345.12 461.965 1347.69 461.965C1350.27 461.965 1352.52 461.333 1354.44 460.069C1356.37 458.804 1357.85 456.948 1358.9 454.501C1359.97 452.055 1360.5 449.049 1360.5 445.486ZM1406.59 434.77C1406.39 432.783 1405.54 431.239 1404.05 430.139C1402.56 429.038 1400.53 428.488 1397.97 428.488C1396.22 428.488 1394.76 428.735 1393.56 429.227C1392.36 429.703 1391.44 430.369 1390.8 431.223C1390.17 432.077 1389.86 433.045 1389.86 434.129C1389.83 435.033 1390.02 435.821 1390.43 436.494C1390.85 437.168 1391.44 437.751 1392.18 438.243C1392.92 438.719 1393.77 439.138 1394.74 439.5C1395.71 439.844 1396.74 440.14 1397.84 440.386L1402.38 441.47C1404.58 441.963 1406.6 442.62 1408.44 443.441C1410.27 444.262 1411.87 445.272 1413.21 446.471C1414.56 447.67 1415.6 449.082 1416.34 450.708C1417.1 452.334 1417.48 454.198 1417.5 456.3C1417.48 459.387 1416.7 462.064 1415.14 464.33C1413.59 466.58 1411.36 468.329 1408.44 469.577C1405.53 470.809 1402.02 471.425 1397.92 471.425C1393.84 471.425 1390.3 470.801 1387.27 469.553C1384.27 468.305 1381.92 466.457 1380.23 464.01C1378.55 461.547 1377.68 458.5 1377.59 454.871H1387.92C1388.03 456.562 1388.51 457.975 1389.37 459.108C1390.24 460.225 1391.4 461.07 1392.84 461.645C1394.3 462.204 1395.95 462.483 1397.79 462.483C1399.6 462.483 1401.17 462.22 1402.5 461.695C1403.84 461.169 1404.89 460.438 1405.63 459.502C1406.37 458.566 1406.74 457.49 1406.74 456.275C1406.74 455.142 1406.4 454.189 1405.73 453.418C1405.07 452.646 1404.1 451.989 1402.82 451.447C1401.55 450.905 1400 450.412 1398.16 449.969L1392.67 448.589C1388.42 447.555 1385.06 445.937 1382.59 443.737C1380.13 441.536 1378.91 438.572 1378.92 434.844C1378.91 431.789 1379.72 429.12 1381.36 426.838C1383.02 424.555 1385.3 422.773 1388.19 421.492C1391.08 420.211 1394.36 419.571 1398.04 419.571C1401.78 419.571 1405.05 420.211 1407.84 421.492C1410.65 422.773 1412.84 424.555 1414.4 426.838C1415.96 429.12 1416.76 431.765 1416.81 434.77H1406.59ZM1468.1 434.77C1467.9 432.783 1467.06 431.239 1465.56 430.139C1464.07 429.038 1462.04 428.488 1459.48 428.488C1457.74 428.488 1456.27 428.735 1455.07 429.227C1453.87 429.703 1452.95 430.369 1452.31 431.223C1451.68 432.077 1451.37 433.045 1451.37 434.129C1451.34 435.033 1451.53 435.821 1451.94 436.494C1452.37 437.168 1452.95 437.751 1453.69 438.243C1454.43 438.719 1455.28 439.138 1456.25 439.5C1457.22 439.844 1458.25 440.14 1459.35 440.386L1463.89 441.47C1466.09 441.963 1468.11 442.62 1469.95 443.441C1471.78 444.262 1473.38 445.272 1474.72 446.471C1476.07 447.67 1477.11 449.082 1477.85 450.708C1478.61 452.334 1478.99 454.198 1479.01 456.3C1478.99 459.387 1478.21 462.064 1476.65 464.33C1475.1 466.58 1472.87 468.329 1469.95 469.577C1467.04 470.809 1463.53 471.425 1459.43 471.425C1455.35 471.425 1451.81 470.801 1448.79 469.553C1445.78 468.305 1443.43 466.457 1441.74 464.01C1440.06 461.547 1439.19 458.5 1439.1 454.871H1449.43C1449.54 456.562 1450.03 457.975 1450.88 459.108C1451.75 460.225 1452.91 461.07 1454.35 461.645C1455.81 462.204 1457.46 462.483 1459.3 462.483C1461.11 462.483 1462.68 462.22 1464.01 461.695C1465.36 461.169 1466.4 460.438 1467.14 459.502C1467.88 458.566 1468.25 457.49 1468.25 456.275C1468.25 455.142 1467.91 454.189 1467.24 453.418C1466.58 452.646 1465.61 451.989 1464.33 451.447C1463.06 450.905 1461.51 450.412 1459.67 449.969L1454.18 448.589C1449.93 447.555 1446.57 445.937 1444.1 443.737C1441.64 441.536 1440.42 438.572 1440.43 434.844C1440.42 431.789 1441.23 429.12 1442.87 426.838C1444.53 424.555 1446.81 422.773 1449.7 421.492C1452.59 420.211 1455.87 419.571 1459.55 419.571C1463.29 419.571 1466.56 420.211 1469.35 421.492C1472.16 422.773 1474.35 424.555 1475.91 426.838C1477.47 429.12 1478.27 431.765 1478.32 434.77H1468.1ZM1507.96 417.896L1491.7 478.298H1482.66L1498.92 417.896H1507.96ZM1557.73 437.923H1546.94C1546.74 436.527 1546.34 435.287 1545.73 434.203C1545.12 433.103 1544.34 432.167 1543.39 431.395C1542.44 430.623 1541.34 430.032 1540.09 429.621C1538.86 429.211 1537.52 429.006 1536.07 429.006C1533.46 429.006 1531.19 429.654 1529.25 430.952C1527.31 432.233 1525.81 434.105 1524.74 436.568C1523.68 439.015 1523.14 441.988 1523.14 445.486C1523.14 449.082 1523.68 452.104 1524.74 454.551C1525.83 456.998 1527.34 458.845 1529.28 460.093C1531.21 461.341 1533.46 461.965 1536 461.965C1537.43 461.965 1538.75 461.777 1539.97 461.399C1541.2 461.021 1542.29 460.471 1543.24 459.748C1544.2 459.009 1544.98 458.114 1545.61 457.063C1546.25 456.012 1546.69 454.813 1546.94 453.467L1557.73 453.516C1557.45 455.832 1556.75 458.065 1555.63 460.216C1554.53 462.351 1553.05 464.265 1551.18 465.956C1549.32 467.631 1547.1 468.961 1544.52 469.947C1541.96 470.916 1539.06 471.4 1535.83 471.4C1531.33 471.4 1527.31 470.382 1523.76 468.346C1520.23 466.309 1517.44 463.361 1515.38 459.502C1513.35 455.643 1512.33 450.971 1512.33 445.486C1512.33 439.984 1513.36 435.304 1515.43 431.444C1517.5 427.585 1520.31 424.645 1523.86 422.625C1527.4 420.589 1531.39 419.571 1535.83 419.571C1538.75 419.571 1541.46 419.981 1543.96 420.803C1546.47 421.624 1548.7 422.822 1550.63 424.399C1552.57 425.959 1554.15 427.872 1555.36 430.139C1556.59 432.405 1557.38 435 1557.73 437.923ZM1581.43 470.71V420.261H1592.1V461.916H1613.73V470.71H1581.43ZM1612.57 429.055V420.261H1654V429.055H1638.56V470.71H1628.01V429.055H1612.57ZM1678.71 470.71H1660.83V420.261H1678.86C1683.93 420.261 1688.3 421.271 1691.96 423.291C1695.63 425.294 1698.44 428.176 1700.41 431.937C1702.4 435.698 1703.39 440.197 1703.39 445.436C1703.39 450.691 1702.4 455.208 1700.41 458.985C1698.44 462.762 1695.61 465.661 1691.91 467.68C1688.24 469.7 1683.83 470.71 1678.71 470.71ZM1671.49 461.571H1678.27C1681.42 461.571 1684.07 461.013 1686.22 459.896C1688.39 458.763 1690.02 457.014 1691.1 454.649C1692.2 452.268 1692.75 449.197 1692.75 445.436C1692.75 441.708 1692.2 438.662 1691.1 436.297C1690.02 433.932 1688.4 432.192 1686.25 431.075C1684.1 429.958 1681.44 429.4 1678.29 429.4H1671.49V461.571ZM1717.14 470.71H1705.71L1723.13 420.261H1736.88L1754.27 470.71H1742.84L1730.2 431.789H1729.81L1717.14 470.71ZM1716.43 450.88H1743.43V459.206H1716.43V450.88ZM1766.28 471.351C1764.65 471.351 1763.26 470.776 1762.09 469.627C1760.94 468.461 1760.36 467.065 1760.36 465.439C1760.36 463.829 1760.94 462.45 1762.09 461.3C1763.26 460.151 1764.65 459.576 1766.28 459.576C1767.85 459.576 1769.23 460.151 1770.42 461.3C1771.6 462.45 1772.19 463.829 1772.19 465.439C1772.19 466.523 1771.91 467.516 1771.35 468.42C1770.81 469.306 1770.1 470.021 1769.21 470.563C1768.32 471.088 1767.34 471.351 1766.28 471.351Z" fill="#373737"/>
<path d="M715.977 138.667V386.899H650.94V262.441C650.94 252.811 649.1 243.883 645.462 235.597C641.816 227.269 636.8 219.984 630.312 213.659C623.858 207.376 616.436 202.497 607.979 198.979C599.548 195.504 590.689 193.766 581.427 193.766C571.832 193.766 562.87 195.606 554.609 199.253C546.358 202.891 538.962 207.813 532.508 213.958C526.054 220.079 521.013 227.406 517.4 235.863C513.754 244.32 511.914 253.384 511.914 263.014C511.914 272.344 513.754 281.135 517.4 289.429C521.013 297.724 526.054 305.042 532.508 311.359C538.962 317.685 546.358 322.667 554.609 326.305C562.87 329.951 571.832 331.791 581.427 331.791C591.69 331.791 600.455 329.951 607.74 326.305H608.245V327.315L633.051 371.517L632.554 371.979C616.333 384.588 596.304 390.836 572.499 390.836C554.943 390.836 538.397 387.567 522.844 380.941C507.266 374.325 493.724 365.192 482.126 353.627C470.553 342.02 461.36 328.479 454.572 312.934C447.784 297.381 444.403 280.836 444.403 263.28C444.403 245.39 447.784 228.673 454.572 213.128C461.36 197.575 470.553 183.999 482.126 172.435C493.724 160.828 507.266 151.635 522.844 144.847C538.397 138.094 554.943 134.687 572.499 134.687C589.687 134.687 604.769 137.897 617.677 144.282C630.577 150.702 641.645 159.964 650.94 172.101V138.667H715.977Z" fill="#373737"/>
<path d="M968.155 148.597L962.206 158.526L936.895 203.695L936.39 203.199C925.459 196.908 913.715 193.766 901.149 193.766C892.521 193.766 884.432 195.17 876.806 197.977C869.179 200.785 862.425 204.765 856.476 209.918C850.493 215.028 845.443 221.054 841.326 228.039C837.183 234.964 834.444 242.42 833.134 250.337V386.899H765.598V138.667H833.134V170.929C850.656 146.79 876.301 134.687 910.077 134.687C929.936 134.687 949.127 139.335 967.684 148.597H968.155Z" fill="#373737"/>
<path d="M1137.47 135.689C1155 135.689 1171.55 139.001 1187.1 145.618C1202.67 152.235 1216.22 161.334 1227.82 172.906C1239.39 184.505 1248.59 198.08 1255.38 213.625C1262.16 229.212 1265.54 245.724 1265.54 263.28C1265.54 280.802 1262.16 297.382 1255.38 312.9C1248.59 328.479 1239.39 342.021 1227.82 353.628C1216.22 365.192 1202.67 374.325 1187.1 380.942C1171.55 387.567 1155 390.871 1137.47 390.871C1103.37 390.871 1077.39 378.305 1059.5 353.122V386.899H993.997V39.3576H1060V263.28C1060 272.875 1061.84 281.803 1065.49 290.063C1069.1 298.357 1073.98 305.582 1080.13 311.694C1086.25 317.779 1093.54 322.701 1101.97 326.305C1110.39 329.951 1119.42 331.792 1129.02 331.792C1138.28 331.792 1147.14 329.951 1155.6 326.305C1164.03 322.701 1171.31 317.779 1177.43 311.694C1183.55 305.582 1188.43 298.357 1192.08 290.063C1195.72 281.803 1197.53 272.875 1197.53 263.28C1197.53 253.684 1195.72 244.722 1192.08 236.462C1188.43 228.202 1183.55 220.918 1177.43 214.635C1171.31 208.343 1164.03 203.464 1155.6 199.989C1147.14 196.505 1138.28 194.768 1129.02 194.768C1120.09 194.768 1111.16 196.574 1102.2 200.22L1101.73 200.725L1101.23 199.715L1076.89 155.051L1077.39 154.546C1093.61 141.971 1113.64 135.689 1137.47 135.689Z" fill="#373737"/>
<path d="M1305.26 138.667H1371.3V386.899H1305.26V138.667ZM1305.26 39.3576H1371.3V97.4353H1305.26V39.3576Z" fill="#373737"/>
<path d="M1645.34 167.454C1653.6 177.717 1659.55 190.625 1663.2 206.169C1666.84 221.756 1668.68 240.947 1668.68 263.785V386.899H1601.14V263.451C1601.14 254.155 1600.91 245.296 1600.4 236.83C1599.9 228.373 1598.16 220.883 1595.19 214.429C1592.21 207.941 1587.43 202.891 1580.81 199.253C1574.16 195.606 1564.72 193.766 1552.49 193.766C1540.92 193.766 1530.15 196.24 1520.22 201.222V201.727L1519.72 201.222L1495.42 158.32L1495.91 157.824C1513.1 142.408 1534.64 134.687 1560.44 134.687C1600.17 134.687 1628.45 145.618 1645.34 167.454ZM1415.96 138.667H1483.48V386.899H1415.96V138.667Z" fill="#373737"/>
<path d="M1710.87 138.667H1776.88V386.899H1710.87V138.667ZM1710.87 39.3576H1776.88V97.4353H1710.87V39.3576Z" fill="#373737"/>
</svg>
